:FULLY-SPECIFIED
:FORCE-ALL-JOINTS-BE-3DOF
:DEGREES
306
root 9.08028 15.4234 -23.8045 13.0346 59.6208 16.9289
lfemur -16.204 18.782 -18.0613
ltibia 52.5294 0 0
lfoot -16.8961 -26.6324 0
ltoes 58.4412 0 0
rfemur -53.3893 -19.6306 36.327
rtibia 56.9932 0 0
rfoot 16.3571 13.9934 0
rtoes 7.92047 0 0
lowerback 9.48474 -3.29512 -8.57155
upperback 5.07956 -4.90677 -4.08762
thorax 0.383321 -2.48688 0.954681
lowerneck -5.42217 -10.5069 -2.55931
upperneck -2.17262 -13.9271 10.5569
head 1.25623 -6.84293 3.35536
lclavicle 3.05807e-14 -2.06238e-14 0
lhumerus -42.151 -41.8878 99.0067
lradius 59.3711 0 0
lwrist 21.5541 0 0
lhand 13.8296 11.6549 0
lfingers 7.12502 0 0
lthumb 38.7487 37.2455 0
rclavicle 3.05807e-14 -2.06238e-14 0
rhumerus -41.4955 68.1239 -76.5667
rradius 80.71 0 0
rwrist 5.26243 0 0
rhand 2.15795 -6.3921 0
rfingers 7.12502 0 0
rthumb 27.6372 -754.199 0
307
root 9.03576 15.4446 -23.7841 12.4972 58.0865 15.949
lfemur -16.3892 19.1646 -17.9937
ltibia 52.1051 0 0
lfoot -17.6253 -25.6192 0
ltoes 58.257 0 0
rfemur -55.0456 -20.7385 37.0601
rtibia 57.8008 0 0
rfoot 15.9371 16.58 0
rtoes -0.103045 0 0
lowerback 9.66577 -3.17577 -8.47375
upperback 5.08333 -4.76472 -4.08917
thorax 0.26716 -2.4115 0.902502
lowerneck -5.52399 -10.3897 -2.32238
upperneck -2.63904 -13.7429 10.6848
head 1.10118 -6.76143 3.37513
lclavicle 2.08823e-14 -1.53279e-14 0
lhumerus -42.5269 -42.6286 99.3732
lradius 59.128 0 0
lwrist 21.1405 0 0
lhand 13.8533 11.4675 0
lfingers 7.12502 0 0
lthumb 38.7711 37.052 0
rclavicle 2.08823e-14 -1.53279e-14 0
rhumerus -33.0431 68.6269 -68.445
rradius 80.5852 0 0
rwrist 3.47306 0 0
rhand 5.51764 -5.48532 0
rfingers 7.12502 0 0
rthumb 30.8476 -752.763 0
308
root 8.99487 15.4648 -23.7632 12.0731 56.6443 15.0943
lfemur -16.5781 19.5414 -17.9478
ltibia 51.7095 0 0
lfoot -18.403 -24.592 0
ltoes 57.9842 0 0
rfemur -56.5887 -21.6357 37.6273
rtibia 58.5583 0 0
rfoot 15.1081 18.749 0
rtoes -7.62998 0 0
lowerback 9.8099 -3.05945 -8.3678
upperback 5.07261 -4.62341 -4.08341
thorax 0.156208 -2.33666 0.851072
lowerneck -5.60564 -10.2904 -2.12461
upperneck -3.05817 -13.5843 10.7932
head 0.961664 -6.69256 3.39341
lclavicle 2.61014e-14 -7.41704e-15 0
lhumerus -42.9137 -43.3498 99.7872
lradius 58.9033 0 0
lwrist 20.6697 0 0
lhand 13.9824 11.3086 0
lfingers 7.12502 0 0
lthumb 38.8928 36.8586 0
rclavicle 2.61014e-14 -7.41704e-15 0
rhumerus -24.7375 68.3503 -60.5582
rradius 80.2651 0 0
rwrist 1.6781 0 0
rhand 8.65606 -4.55185 0
rfingers 7.12502 0 0
rthumb 33.8414 -751.286 0
309
root 8.95906 15.4833 -23.7423 11.7781 55.3449 14.3951
lfemur -16.7654 19.9095 -17.9263
ltibia 51.3578 0 0
lfoot -19.2093 -23.5771 0
ltoes 57.616 0 0
rfemur -57.9538 -22.2722 37.9888
rtibia 59.2337 0 0
rfoot 13.8786 20.3628 0
rtoes -14.2127 0 0
lowerback 9.90836 -2.94871 -8.25837
upperback 5.04675 -4.48549 -4.0701
thorax 0.0553108 -2.26391 0.802785
lowerneck -5.66427 -10.2142 -1.97222
upperneck -3.41346 -13.4593 10.8753
head 0.842986 -6.6399 3.40836
lclavicle 5.08889e-14 0 0
lhumerus -43.3004 -44.0231 100.237
lradius 58.7077 0 0
lwrist 20.1567 0 0
lhand 14.2114 11.1762 0
lfingers 7.12502 0 0
lthumb 39.1088 36.665 0
rclavicle 5.08889e-14 0 0
rhumerus -17.0391 67.2029 -53.3766
rradius 79.73 0 0
rwrist -0.0758576 0 0
rhand 11.4369 -3.63621 0
rfingers 7.12502 0 0
rthumb 36.4879 -749.831 0
310
root 8.92728 15.5034 -23.7107 11.6663 54.2022 13.9048
lfemur -16.879 20.297 -17.9001
ltibia 50.9446 0 0
lfoot -19.9772 -22.4055 0
ltoes 56.9867 0 0
rfemur -58.8751 -22.2895 37.5008
rtibia 59.6979 0 0
rfoot 12.187 19.8809 0
rtoes -16.8039 0 0
lowerback 9.91438 -2.79107 -8.07306
upperback 4.99928 -4.27086 -4.06803
thorax -0.0272017 -2.15258 0.68818
lowerneck -5.63562 -10.2381 -1.73705
upperneck -3.73348 -13.4738 10.8712
head 0.717342 -6.66147 3.37891
lclavicle 1.77869e-14 2.83051e-15 0
lhumerus -43.8442 -44.8473 100.913
lradius 58.6318 0 0
lwrist 19.713 0 0
lhand 14.4443 10.9597 0
lfingers 7.12502 0 0
lthumb 39.3283 36.3843 0
rclavicle 1.77869e-14 2.83051e-15 0
rhumerus -13.8501 62.9647 -51.544
rradius 78.4092 0 0
rwrist -2.36695 0 0
rhand 12.4583 -3.98827 0
rfingers 7.12502 0 0
rthumb 37.4515 -749.913 0
311
root 8.89379 15.5258 -23.6729 11.5508 53.0356 13.4072
lfemur -16.9267 20.6398 -17.8309
ltibia 50.4384 0 0
lfoot -20.633 -21.2563 0
ltoes 56.4763 0 0
rfemur -59.6883 -22.1856 36.6755
rtibia 60.1093 0 0
rfoot 10.5737 18.8698 0
rtoes -18.542 0 0
lowerback 9.91575 -2.60331 -7.83309
upperback 4.95189 -4.0114 -4.07512
thorax -0.112738 -2.01811 0.529329
lowerneck -5.56825 -10.3037 -1.41705
upperneck -4.0904 -13.5436 10.8424
head 0.568303 -6.71463 3.32935
lclavicle -4.78936e-15 8.42894e-15 0
lhumerus -44.4908 -45.827 101.72
lradius 58.5971 0 0
lwrist 19.3334 0 0
lhand 14.6314 10.7305 0
lfingers 7.12502 0 0
lthumb 39.5045 36.1034 0
rclavicle -4.78936e-15 8.42894e-15 0
rhumerus -11.2321 57.7087 -50.6339
rradius 76.9776 0 0
rwrist -4.9909 0 0
rhand 12.4621 -5.05227 0
rfingers 7.12502 0 0
rthumb 37.4519 -750.948 0
312
root 8.85975 15.5495 -23.6302 11.4327 51.8822 12.9158
lfemur -16.9081 20.9247 -17.7207
ltibia 49.8592 0 0
lfoot -21.1588 -20.1809 0
ltoes 56.1175 0 0
rfemur -60.3723 -21.9743 35.5586
rtibia 60.4572 0 0
rfoot 9.088 17.4348 0
rtoes -19.4704 0 0
lowerback 9.91372 -2.39398 -7.55028
upperback 4.90583 -3.71928 -4.08835
thorax -0.198719 -1.8668 0.336891
lowerneck -5.46753 -10.4055 -1.03037
upperneck -4.47011 -13.6618 10.791
head 0.402359 -6.79512 3.26308
lclavicle -1.88011e-14 1.45003e-14 0
lhumerus -45.2132 -46.918 102.626
lradius 58.6006 0 0
lwrist 19.0224 0 0
lhand 14.7743 10.5038 0
lfingers 7.12502 0 0
lthumb 39.6391 35.8372 0
rclavicle -1.88011e-14 1.45003e-14 0
rhumerus -9.14133 51.7018 -50.5123
rradius 75.524 0 0
rwrist -7.84288 0 0
rhand 11.4577 -6.7164 0
rfingers 7.12502 0 0
rthumb 36.4955 -752.802 0
313
root 8.82631 15.5736 -23.5842 11.3131 50.7793 12.4441
lfemur -16.823 21.1381 -17.5716
ltibia 49.2269 0 0
lfoot -21.5369 -19.2307 0
ltoes 55.943 0 0
rfemur -60.906 -21.6691 34.1957
rtibia 60.7309 0 0
rfoot 7.77906 15.6812 0
rtoes -19.6319 0 0
lowerback 9.90956 -2.17161 -7.23641
upperback 4.86232 -3.40667 -4.10467
thorax -0.282567 -1.705 0.121523
lowerneck -5.3388 -10.5382 -0.595184
upperneck -4.8585 -13.8218 10.7188
head 0.226002 -6.89866 3.18349
lclavicle -2.62094e-14 1.87495e-14 0
lhumerus -45.9845 -48.0765 103.601
lradius 58.6391 0 0
lwrist 18.785 0 0
lhand 14.8747 10.295 0
lfingers 7.12502 0 0
lthumb 39.7337 35.6005 0
rclavicle -2.62094e-14 1.87495e-14 0
rhumerus -7.53414 45.211 -51.0449
rradius 74.1371 0 0
rwrist -10.818 0 0
rhand 9.45447 -8.86883 0
rfingers 7.12502 0 0
rthumb 34.5892 -755.344 0
